ffmpeg version 2022-04-14-git-ea84eb2db1-essentials_build-www.gyan.dev Copyright (c) 2000-2022 the FFmpeg developers
  built with gcc 11.2.0 (Rev10, Built by MSYS2 project)
  configuration: --enable-gpl --enable-version3 --enable-static --disable-w32threads --disable-autodetect --enable-fontconfig --enable-iconv --enable-gnutls --enable-libxml2 --enable-gmp --enable-bzlib --enable-lzma --enable-zlib --enable-libsrt --enable-libssh --enable-libzmq --enable-avisynth --enable-sdl2 --enable-libwebp --enable-libx264 --enable-libx265 --enable-libxvid --enable-libaom --enable-libopenjpeg --enable-libvpx --enable-mediafoundation --enable-libass --enable-libfreetype --enable-libfribidi --enable-libvidstab --enable-libvmaf --enable-libzimg --enable-amf --enable-cuda-llvm --enable-cuvid --enable-ffnvcodec --enable-nvdec --enable-nvenc --enable-d3d11va --enable-dxva2 --enable-libmfx --enable-libgme --enable-libopenmpt --enable-libopencore-amrwb --enable-libmp3lame --enable-libtheora --enable-libvo-amrwbenc --enable-libgsm --enable-libopencore-amrnb --enable-libopus --enable-libspeex --enable-libvorbis --enable-librubberband
  libavutil      57. 24.101 / 57. 24.101
  libavcodec     59. 26.100 / 59. 26.100
  libavformat    59. 22.100 / 59. 22.100
  libavdevice    59.  6.100 / 59.  6.100
  libavfilter     8. 31.100 /  8. 31.100
  libswscale      6.  6.100 /  6.  6.100
  libswresample   4.  6.100 /  4.  6.100
  libpostproc    56.  5.100 / 56.  5.100
Splitting the commandline.
Reading option '-v' ... matched as option 'v' (set logging level) with argument 'debug'.
Reading option '-nostdin' ... matched as option 'stdin' (enable or disable interaction on standard input) with argument 0.
Reading option '-progress' ... matched as option 'progress' (write program-readable progress information) with argument 'C:/Users/pedro/AppData/Local/Temp/KritaFFmpegProgress.YLIFqg'.
Reading option '-r' ... matched as option 'r' (set frame rate (Hz value, fraction or abbreviation)) with argument '14'.
Reading option '-start_number' ... matched as AVOption 'start_number' with argument '24'.
Reading option '-i' ... matched as input url with argument 'C:/Users/pedro/DEV/jump-tales/characters/drexa/new/gifs/frame%04d.png'.
Reading option '-vf' ... matched as option 'vf' (set video filters) with argument 'palettegen'.
Reading option '-y' ... matched as option 'y' (overwrite output files) with argument '1'.
Reading option 'C:/Users/pedro/DEV/jump-tales/characters/drexa/new/gifs/palette.png' ... matched as output url.
Finished splitting the commandline.
Parsing a group of options: global .
Applying option v (set logging level) with argument debug.
Applying option nostdin (enable or disable interaction on standard input) with argument 0.
Applying option progress (write program-readable progress information) with argument C:/Users/pedro/AppData/Local/Temp/KritaFFmpegProgress.YLIFqg.
[file @ 000001bb86faca00] Setting default whitelist 'file,crypto,data'
Applying option y (overwrite output files) with argument 1.
Successfully parsed a group of options.
Parsing a group of options: input url C:/Users/pedro/DEV/jump-tales/characters/drexa/new/gifs/frame%04d.png.
Applying option r (set frame rate (Hz value, fraction or abbreviation)) with argument 14.
Successfully parsed a group of options.
Opening an input file: C:/Users/pedro/DEV/jump-tales/characters/drexa/new/gifs/frame%04d.png.
[image2 @ 000001bb86fecf00] Opening 'C:/Users/pedro/DEV/jump-tales/characters/drexa/new/gifs/frame0024.png' for reading
[file @ 000001bb86ff1c00] Setting default whitelist 'file,crypto,data'
[AVIOContext @ 000001bb86ff9dc0] Statistics: 3502 bytes read, 0 seeks
[image2 @ 000001bb86fecf00] Opening 'C:/Users/pedro/DEV/jump-tales/characters/drexa/new/gifs/frame0025.png' for reading
[file @ 000001bb87039dc0] Setting default whitelist 'file,crypto,data'
[AVIOContext @ 000001bb86ffaec0] Statistics: 3519 bytes read, 0 seeks
[image2 @ 000001bb86fecf00] Opening 'C:/Users/pedro/DEV/jump-tales/characters/drexa/new/gifs/frame0026.png' for reading
[file @ 000001bb87042e00] Setting default whitelist 'file,crypto,data'
[AVIOContext @ 000001bb86ff9c40] Statistics: 3603 bytes read, 0 seeks
[image2 @ 000001bb86fecf00] Opening 'C:/Users/pedro/DEV/jump-tales/characters/drexa/new/gifs/frame0027.png' for reading
[file @ 000001bb8704be00] Setting default whitelist 'file,crypto,data'
[AVIOContext @ 000001bb8703d000] Statistics: 3622 bytes read, 0 seeks
[image2 @ 000001bb86fecf00] Opening 'C:/Users/pedro/DEV/jump-tales/characters/drexa/new/gifs/frame0028.png' for reading
[file @ 000001bb8704be00] Setting default whitelist 'file,crypto,data'
[AVIOContext @ 000001bb8703e040] Statistics: 3572 bytes read, 0 seeks
[image2 @ 000001bb86fecf00] Opening 'C:/Users/pedro/DEV/jump-tales/characters/drexa/new/gifs/frame0029.png' for reading
[file @ 000001bb8704be00] Setting default whitelist 'file,crypto,data'
[AVIOContext @ 000001bb8703f040] Statistics: 3532 bytes read, 0 seeks
[image2 @ 000001bb86fecf00] Opening 'C:/Users/pedro/DEV/jump-tales/characters/drexa/new/gifs/frame0030.png' for reading
[file @ 000001bb8704be00] Setting default whitelist 'file,crypto,data'
[AVIOContext @ 000001bb87040000] Statistics: 3565 bytes read, 0 seeks
[image2 @ 000001bb86fecf00] Opening 'C:/Users/pedro/DEV/jump-tales/characters/drexa/new/gifs/frame0031.png' for reading
[file @ 000001bb87040000] Setting default whitelist 'file,crypto,data'
[AVIOContext @ 000001bb87041800] Statistics: 3537 bytes read, 0 seeks
Input #0, image2, from 'C:/Users/pedro/DEV/jump-tales/characters/drexa/new/gifs/frame%04d.png':
  Duration: 00:00:00.32, start: 0.000000, bitrate: N/A
  Stream #0:0, 8, 1/25: Video: png, 1 reference frame, rgba(pc), 246x246 [SAR 3779:3779 DAR 1:1], 0/1, 25 fps, 25 tbr, 25 tbn
Successfully opened the file.
Parsing a group of options: output url C:/Users/pedro/DEV/jump-tales/characters/drexa/new/gifs/palette.png.
Applying option vf (set video filters) with argument palettegen.
Successfully parsed a group of options.
Opening an output file: C:/Users/pedro/DEV/jump-tales/characters/drexa/new/gifs/palette.png.
Successfully opened the file.
detected 4 logical cores
Stream mapping:
  Stream #0:0 -> #0:0 (png (native) -> png (native))
cur_dts is invalid st:0 (0) [init:0 i_done:0 finish:0] (this is harmless if it occurs once at the start per stream)
    Last message repeated 4 times
[graph 0 input from stream 0:0 @ 000001bb8703c5c0] Setting 'video_size' to value '246x246'
[graph 0 input from stream 0:0 @ 000001bb8703c5c0] Setting 'pix_fmt' to value '26'
[graph 0 input from stream 0:0 @ 000001bb8703c5c0] Setting 'time_base' to value '1/14'
[graph 0 input from stream 0:0 @ 000001bb8703c5c0] Setting 'pixel_aspect' to value '3779/3779'
[graph 0 input from stream 0:0 @ 000001bb8703c5c0] Setting 'frame_rate' to value '14/1'
[graph 0 input from stream 0:0 @ 000001bb8703c5c0] w:246 h:246 pixfmt:rgba tb:1/14 fr:14/1 sar:3779/3779
[format @ 000001bb8703ca80] Setting 'pix_fmts' to value 'rgb24|rgba|rgb48be|rgba64be|pal8|gray|ya8|gray16be|ya16be|monob'
[auto_scale_0 @ 000001bb8703cf80] w:iw h:ih flags:'' interl:0
[Parsed_palettegen_0 @ 000001bb86ff9b40] auto-inserting filter 'auto_scale_0' between the filter 'graph 0 input from stream 0:0' and the filter 'Parsed_palettegen_0'
[auto_scale_1 @ 000001bb87058300] w:iw h:ih flags:'' interl:0
[format @ 000001bb8703ca80] auto-inserting filter 'auto_scale_1' between the filter 'Parsed_palettegen_0' and the filter 'format'
[AVFilterGraph @ 000001bb86ffaec0] query_formats: 4 queried, 3 merged, 2 already done, 0 delayed
[auto_scale_1 @ 000001bb87058300] picking rgba out of 10 ref:bgra alpha:1
[swscaler @ 000001bb8705b640] [swscaler @ 000001bb8706e640] Forcing full internal H chroma due to input having non subsampled chroma
[swscaler @ 000001bb8705b640] [swscaler @ 000001bb8750ecc0] Forcing full internal H chroma due to input having non subsampled chroma
[swscaler @ 000001bb8705b640] [swscaler @ 000001bb87525d40] Forcing full internal H chroma due to input having non subsampled chroma
[swscaler @ 000001bb8705b640] [swscaler @ 000001bb8753ddc0] Forcing full internal H chroma due to input having non subsampled chroma
[swscaler @ 000001bb8705b640] [swscaler @ 000001bb87554ec0] Forcing full internal H chroma due to input having non subsampled chroma
[auto_scale_0 @ 000001bb8703cf80] w:246 h:246 fmt:rgba sar:3779/3779 -> w:246 h:246 fmt:bgra sar:1/1 flags:0x0
[swscaler @ 000001bb87572ec0] [swscaler @ 000001bb8757fe80] Forcing full internal H chroma due to input having non subsampled chroma
[swscaler @ 000001bb87572ec0] [swscaler @ 000001bb87592e80] Forcing full internal H chroma due to input having non subsampled chroma
[swscaler @ 000001bb87572ec0] [swscaler @ 000001bb875a5ec0] Forcing full internal H chroma due to input having non subsampled chroma
[swscaler @ 000001bb87572ec0] [swscaler @ 000001bb875b8ec0] Forcing full internal H chroma due to input having non subsampled chroma
[swscaler @ 000001bb87572ec0] [swscaler @ 000001bb885e00c0] Forcing full internal H chroma due to input having non subsampled chroma
[auto_scale_1 @ 000001bb87058300] w:16 h:16 fmt:bgra sar:1/1 -> w:16 h:16 fmt:rgba sar:1/1 flags:0x0
[swscaler @ 000001bb8705b640] [swscaler @ 000001bb8706e640] Forcing full internal H chroma due to input having non subsampled chroma
[swscaler @ 000001bb8705b640] [swscaler @ 000001bb87558740] Forcing full internal H chroma due to input having non subsampled chroma
[swscaler @ 000001bb8705b640] [swscaler @ 000001bb87514fc0] Forcing full internal H chroma due to input having non subsampled chroma
[swscaler @ 000001bb8705b640] [swscaler @ 000001bb8752b540] Forcing full internal H chroma due to input having non subsampled chroma
[swscaler @ 000001bb8705b640] [swscaler @ 000001bb8753e540] Forcing full internal H chroma due to input having non subsampled chroma
[auto_scale_0 @ 000001bb8703cf80] w:246 h:246 fmt:rgba sar:3779/3779 -> w:246 h:246 fmt:bgra sar:1/1 flags:0x0
[swscaler @ 000001bb8705b640] [swscaler @ 000001bb8706e640] Forcing full internal H chroma due to input having non subsampled chroma
[swscaler @ 000001bb8705b640] [swscaler @ 000001bb87514fc0] Forcing full internal H chroma due to input having non subsampled chroma
[swscaler @ 000001bb8705b640] [swscaler @ 000001bb87558740] Forcing full internal H chroma due to input having non subsampled chroma
[swscaler @ 000001bb8705b640] [swscaler @ 000001bb8752b540] Forcing full internal H chroma due to input having non subsampled chroma
[swscaler @ 000001bb8705b640] [swscaler @ 000001bb8753e540] Forcing full internal H chroma due to input having non subsampled chroma
[auto_scale_0 @ 000001bb8703cf80] w:246 h:246 fmt:rgba sar:3779/3779 -> w:246 h:246 fmt:bgra sar:1/1 flags:0x0
[swscaler @ 000001bb8705b640] [swscaler @ 000001bb8706e640] Forcing full internal H chroma due to input having non subsampled chroma
[swscaler @ 000001bb8705b640] [swscaler @ 000001bb87514fc0] Forcing full internal H chroma due to input having non subsampled chroma
[swscaler @ 000001bb8705b640] [swscaler @ 000001bb87558740] Forcing full internal H chroma due to input having non subsampled chroma
[swscaler @ 000001bb8705b640] [swscaler @ 000001bb8752b540] Forcing full internal H chroma due to input having non subsampled chroma
[swscaler @ 000001bb8705b640] [swscaler @ 000001bb8753e540] Forcing full internal H chroma due to input having non subsampled chroma
[auto_scale_0 @ 000001bb8703cf80] w:246 h:246 fmt:rgba sar:3779/3779 -> w:246 h:246 fmt:bgra sar:1/1 flags:0x0
cur_dts is invalid st:0 (0) [init:0 i_done:0 finish:0] (this is harmless if it occurs once at the start per stream)
    Last message repeated 7 times
[Parsed_palettegen_0 @ 000001bb86ff9b40] 9(+1) colors generated out of 9 colors; ratio=1.000000
cur_dts is invalid st:0 (0) [init:0 i_done:0 finish:0] (this is harmless if it occurs once at the start per stream)
Output #0, image2, to 'C:/Users/pedro/DEV/jump-tales/characters/drexa/new/gifs/palette.png':
  Metadata:
    encoder         : Lavf59.22.100
  Stream #0:0, 0, 1/14: Video: png, 1 reference frame, rgba(pc, gbr/unknown/unknown, progressive), 16x16 (0x0) [SAR 1:1 DAR 1:1], 0/1, q=2-31, 200 kb/s, 14 fps, 14 tbn
    Metadata:
      encoder         : Lavc59.26.100 png
Clipping frame in rate conversion by 0.000008
frame=    1 fps=0.0 q=0.0 size=N/A time=00:00:00.00 bitrate=N/A speed=   0x    cur_dts is invalid st:0 (0) [init:1 i_done:0 finish:0] (this is harmless if it occurs once at the start per stream)
[out_0_0 @ 000001bb8703c880] EOF on sink link out_0_0:default.
No more output streams to write to, finishing.
[image2 @ 000001bb87044480] Opening 'C:/Users/pedro/DEV/jump-tales/characters/drexa/new/gifs/palette.png' for writing
[file @ 000001bb87551580] Setting default whitelist 'file,crypto,data'
[AVIOContext @ 000001bb87042c00] Statistics: 138 bytes written, 0 seeks, 1 writeouts
frame=    1 fps=0.0 q=-0.0 Lsize=N/A time=00:00:00.07 bitrate=N/A speed=2.83x    
[AVIOContext @ 000001bb86fecc00] Statistics: 346 bytes written, 0 seeks, 2 writeouts
video:0kB audio:0kB subtitle:0kB other streams:0kB global headers:0kB muxing overhead: unknown
Input file #0 (C:/Users/pedro/DEV/jump-tales/characters/drexa/new/gifs/frame%04d.png):
  Input stream #0:0 (video): 8 packets read (28452 bytes); 8 frames decoded; 
  Total: 8 packets (28452 bytes) demuxed
Output file #0 (C:/Users/pedro/DEV/jump-tales/characters/drexa/new/gifs/palette.png):
  Output stream #0:0 (video): 1 frames encoded; 1 packets muxed (138 bytes); 
  Total: 1 packets (138 bytes) muxed
8 frames successfully decoded, 0 decoding errors
